<?xml version="1.0" standalone="no"?>
<!DOCTYPE svg PUBLIC "-//W3C//DTD SVG 20010904//EN"
 "http://www.w3.org/TR/2001/REC-SVG-20010904/DTD/svg10.dtd">
<svg version="1.0" xmlns="http://www.w3.org/2000/svg"
 width="1024.000000pt" height="1024.000000pt" viewBox="0 0 1024.000000 1024.000000"
 preserveAspectRatio="xMidYMid meet">

<g transform="translate(0.000000,1024.000000) scale(0.100000,-0.100000)"
fill="#000000" stroke="none">
<path d="M0 5120 l0 -5120 5120 0 5120 0 0 5120 0 5120 -5120 0 -5120 0 0
-5120z m3180 3730 c-220 -9 -270 -14 -415 -46 -138 -30 -217 -56 -323 -105
-45 -22 -85 -39 -89 -39 -3 0 -21 -11 -39 -25 -18 -14 -37 -25 -43 -25 -6 0
-11 -4 -11 -8 0 -5 -20 -19 -45 -31 -25 -12 -45 -26 -45 -30 0 -3 -14 -15 -32
-25 -17 -11 -41 -26 -51 -35 -36 -28 -167 -161 -167 -169 0 -4 -12 -18 -26
-31 -78 -74 -194 -266 -256 -420 -37 -93 -87 -299 -98 -406 l-9 -80 4 85 c2
47 13 130 25 184 131 601 582 1044 1197 1176 122 26 261 37 458 37 l150 0
-185 -7z m3905 -917 c29 -9 66 -33 91 -59 80 -79 74 72 74 -1930 0 -1204 -3
-1808 -11 -1861 -24 -178 -104 -335 -244 -482 -155 -162 -340 -274 -542 -328
-84 -22 -119 -26 -243 -26 -99 0 -168 5 -216 16 -297 68 -511 247 -570 478
-24 90 -23 273 0 364 73 283 300 524 598 635 167 62 388 84 567 56 136 -21
173 -20 202 3 l24 19 0 925 c0 1009 3 963 -58 988 -36 15 0 22 -622 -116
-1104 -245 -1389 -311 -1415 -327 -52 -33 -50 24 -50 -1360 0 -855 -4 -1304
-11 -1344 -45 -257 -189 -481 -409 -636 -142 -100 -289 -164 -446 -194 -112
-20 -327 -15 -424 11 -258 69 -468 257 -544 485 -70 212 -28 476 109 685 51
77 173 200 254 254 224 151 556 230 801 191 124 -21 184 -22 205 -7 20 15 20
30 25 1429 l5 1413 22 41 c24 45 72 90 112 106 33 12 751 179 1701 394 212 48
489 111 615 140 248 57 322 64 400 37z m-5558 -755 c-2 -24 -4 -5 -4 42 0 47
2 66 4 43 2 -24 2 -62 0 -85z"/>
<path d="M6475 7716 c-253 -57 -705 -160 -1005 -229 -300 -69 -646 -149 -770
-177 -124 -28 -243 -57 -265 -65 -76 -28 -69 98 -75 -1472 l-5 -1411 -30 -44
c-37 -53 -102 -88 -165 -88 -25 0 -80 7 -123 15 -375 72 -820 -106 -996 -399
-66 -110 -111 -264 -111 -378 1 -368 362 -648 771 -599 397 48 709 300 817
659 15 52 17 168 22 1397 l5 1340 22 42 c30 55 87 100 148 118 46 14 225 55
850 195 1197 268 1140 256 1204 240 68 -17 117 -55 146 -113 l25 -51 0 -945
c0 -896 -1 -948 -19 -986 -42 -94 -118 -125 -256 -105 -49 7 -148 15 -220 17
-285 9 -522 -81 -710 -272 -122 -123 -191 -276 -202 -445 -10 -166 34 -288
146 -400 75 -74 168 -125 296 -162 68 -19 102 -23 230 -22 132 1 161 4 240 27
324 96 581 345 655 633 21 78 21 95 20 1883 0 1516 -3 1808 -15 1836 -17 42
-60 65 -122 64 -26 0 -255 -47 -508 -103z"/>
</g>
</svg>
